<?xml version="1.0" encoding="UTF-8" standalone="no"?>
<!DOCTYPE svg PUBLIC "-//W3C//DTD SVG 1.1//EN"
 "http://www.w3.org/Graphics/SVG/1.1/DTD/svg11.dtd">
<!-- Generated by graphviz version 2.40.1 (20161225.0304)
 -->
<!-- Title: G Pages: 1 -->
<svg width="320pt" height="204pt"
 viewBox="0.00 0.00 320.00 204.00" xmlns="http://www.w3.org/2000/svg" xmlns:xlink="http://www.w3.org/1999/xlink">
<g id="graph0" class="graph" transform="scale(1 1) rotate(0) translate(4 200)">
<title>G</title>
<polygon fill="#ffffff" stroke="transparent" points="-4,4 -4,-200 316,-200 316,4 -4,4"/>
<g id="clust1" class="cluster">
<title>cluster_0</title>
<polygon fill="#d3d3d3" stroke="#d3d3d3" points="8,-8 8,-60 304,-60 304,-8 8,-8"/>
</g>
<!-- pdf -->
<g id="node1" class="node">
<title>pdf</title>
<ellipse fill="#ffffff" stroke="#ffffff" cx="269" cy="-34" rx="27" ry="18"/>
<text text-anchor="middle" x="269" y="-29.8" font-family="Times,serif" font-size="14.00" fill="#000000">pdf</text>
</g>
<!-- docx -->
<g id="node2" class="node">
<title>docx</title>
<ellipse fill="#ffffff" stroke="#ffffff" cx="194" cy="-34" rx="29.6185" ry="18"/>
<text text-anchor="middle" x="194" y="-29.8" font-family="Times,serif" font-size="14.00" fill="#000000">docx</text>
</g>
<!-- html -->
<g id="node3" class="node">
<title>html</title>
<ellipse fill="#ffffff" stroke="#ffffff" cx="117" cy="-34" rx="28.991" ry="18"/>
<text text-anchor="middle" x="117" y="-29.8" font-family="Times,serif" font-size="14.00" fill="#000000">html</text>
</g>
<!-- etc -->
<g id="node4" class="node">
<title>etc</title>
<ellipse fill="#ffffff" stroke="#ffffff" cx="43" cy="-34" rx="27" ry="18"/>
<text text-anchor="middle" x="43" y="-29.8" font-family="Times,serif" font-size="14.00" fill="#000000">etc</text>
</g>
<!-- content -->
<g id="node5" class="node">
<title>content</title>
<ellipse fill="none" stroke="#000000" cx="108" cy="-178" rx="39.4254" ry="18"/>
<text text-anchor="middle" x="108" y="-173.8" font-family="Times,serif" font-size="14.00" fill="#000000">content</text>
</g>
<!-- render -->
<g id="node6" class="node">
<title>render</title>
<ellipse fill="none" stroke="#000000" cx="155" cy="-106" rx="35.8941" ry="18"/>
<text text-anchor="middle" x="155" y="-101.8" font-family="Times,serif" font-size="14.00" fill="#000000">render</text>
</g>
<!-- content&#45;&gt;render -->
<g id="edge1" class="edge">
<title>content&#45;&gt;render</title>
<path fill="none" stroke="#000000" d="M119.3774,-160.5708C125.035,-151.9038 131.9836,-141.2592 138.2369,-131.6796"/>
<polygon fill="#000000" stroke="#000000" points="141.1919,-133.5557 143.7274,-123.2687 135.3303,-129.7293 141.1919,-133.5557"/>
</g>
<!-- render&#45;&gt;pdf -->
<g id="edge3" class="edge">
<title>render&#45;&gt;pdf</title>
<path fill="none" stroke="#000000" d="M179.2473,-92.4719C194.8246,-83.5931 215.3691,-71.5301 233,-60 236.1536,-57.9376 239.4152,-55.7151 242.6286,-53.4687"/>
<polygon fill="#000000" stroke="#000000" points="244.8049,-56.2156 250.915,-47.5602 240.7409,-50.5161 244.8049,-56.2156"/>
</g>
<!-- render&#45;&gt;docx -->
<g id="edge4" class="edge">
<title>render&#45;&gt;docx</title>
<path fill="none" stroke="#000000" d="M164.4408,-88.5708C169.0396,-80.0807 174.6664,-69.6929 179.7718,-60.2674"/>
<polygon fill="#000000" stroke="#000000" points="182.9608,-61.7286 184.6461,-51.2687 176.8057,-58.3946 182.9608,-61.7286"/>
</g>
<!-- render&#45;&gt;html -->
<g id="edge5" class="edge">
<title>render&#45;&gt;html</title>
<path fill="none" stroke="#000000" d="M145.8013,-88.5708C141.3203,-80.0807 135.8379,-69.6929 130.8634,-60.2674"/>
<polygon fill="#000000" stroke="#000000" points="133.877,-58.4789 126.114,-51.2687 127.6863,-61.7462 133.877,-58.4789"/>
</g>
<!-- render&#45;&gt;etc -->
<g id="edge6" class="edge">
<title>render&#45;&gt;etc</title>
<path fill="none" stroke="#000000" d="M131.4104,-92.3902C116.2469,-83.4788 96.2316,-71.4102 79,-60 75.8583,-57.9196 72.604,-55.686 69.3946,-53.4333"/>
<polygon fill="#000000" stroke="#000000" points="71.2844,-50.482 61.1124,-47.5184 67.2161,-56.1784 71.2844,-50.482"/>
</g>
<!-- styling -->
<g id="node7" class="node">
<title>styling</title>
<ellipse fill="none" stroke="#000000" cx="203" cy="-178" rx="37.1578" ry="18"/>
<text text-anchor="middle" x="203" y="-173.8" font-family="Times,serif" font-size="14.00" fill="#000000">styling</text>
</g>
<!-- styling&#45;&gt;render -->
<g id="edge2" class="edge">
<title>styling&#45;&gt;render</title>
<path fill="none" stroke="#000000" d="M191.3805,-160.5708C185.6025,-151.9038 178.5061,-141.2592 172.1197,-131.6796"/>
<polygon fill="#000000" stroke="#000000" points="174.9717,-129.6477 166.5125,-123.2687 169.1473,-133.5307 174.9717,-129.6477"/>
</g>
</g>
</svg>
